# xmcd
#
# Track frame offsets:
#	150
#	16529
#	35352
#	51920
#	71752
#	88324
#	107545
#	123837
#	142676
#	159201
#	178946
#	195491
#
# Disc length: 2862 seconds
#
# Revision: 1
# Processed by: cddbd v1.5.2PL0 Copyright (c) Steve Scherf et al.
# Submitted via: audiograbber 1.83.01
#
DISCID=920b2c0c
DTITLE=Big and Rich - Chartbuster Big and Rich
DYEAR=1900
DGENRE=Karaoke
TTITLE0=Vocal - x
TTITLE1=Vocal - x
TTITLE2=Vocal - x
TTITLE3=Vocal - x
TTITLE4=Vocal - x
TTITLE5=Vocal - x
TTITLE6=Big and Rich - Save a Horse Ride A Cowboy
TTITLE7=Big and Rich - Big Time
TTITLE8=Big and Rich - Comin' To Your City
TTITLE9=Big and Rich - Holy Water
TTITLE10=Big and Rich - Never Mind Me
TTITLE11=Big and Rich - Wild West Show
EXTD=
EXTT0=
EXTT1=
EXTT2=
EXTT3=
EXTT4=
EXTT5=
EXTT6=
EXTT7=
EXTT8=
EXTT9=
EXTT10=
EXTT11=
PLAYORDER=
